PathFileType	4	(X/Y/Z)	c:\Git\powerlifing_model_clean\simulations\HC835B\Session1\HC835B_OGW_0004\marker_experimental.trc
DataRate	CameraRate	NumFrames	NumMarkers	Units	OrigDataRate	OrigDataStartFrame	OrigNumFrames
240.000000	240.000000	5	38	mm	240.000000	268	429
Frame#	Time	RPSI			LPSI			RASI			LASI			RTH1			RTH2			RTH3			RTH4			RSK1			RSK2			RSK3			RSK4			RCAL1			RCAL2			RCAL3			RST			RPT			RTN			RFMB			RSMB			RVMB			RFMH			RSMH			RVMH			RPM			LTH1			LTH2			LTH3			LTH4			LSK1			LSK2			LSK3			LSK4			LCAL1			LCAL2			LCAL3			LFMH			LVMH			
		X1	Y1	Z1	X2	Y2	Z2	X3	Y3	Z3	X4	Y4	Z4	X5	Y5	Z5	X6	Y6	Z6	X7	Y7	Z7	X8	Y8	Z8	X9	Y9	Z9	X10	Y10	Z10	X11	Y11	Z11	X12	Y12	Z12	X13	Y13	Z13	X14	Y14	Z14	X15	Y15	Z15	X16	Y16	Z16	X17	Y17	Z17	X18	Y18	Z18	X19	Y19	Z19	X20	Y20	Z20	X21	Y21	Z21	X22	Y22	Z22	X23	Y23	Z23	X24	Y24	Z24	X25	Y25	Z25	X26	Y26	Z26	X27	Y27	Z27	X28	Y28	Z28	X29	Y29	Z29	X30	Y30	Z30	X31	Y31	Z31	X32	Y32	Z32	X33	Y33	Z33	X34	Y34	Z34	X35	Y35	Z35	X36	Y36	Z36	X37	Y37	Z37	X38	Y38	Z38	

269	1.116666666666667	458.3341674804689	1079.758911132813	-799.969421386719	568.0667724609376	1086.923706054688	-801.9448242187502	413.2306213378907	1049.881713867188	-585.7415771484376	656.8176269531251	1048.074096679688	-599.9970092773439	332.0264282226563	784.361022949219	-573.4426269531251	348.0979003906251	797.4031372070315	-516.4096069335939	345.2727966308594	718.6039428710939	-521.4216308593751	370.5641174316407	729.7655029296876	-469.4253234863282	399.1840820312501	276.5517883300782	-424.1705017089845	385.8853149414064	285.7830200195313	-364.4938659667969	400.5748291015626	231.3127746582032	-386.802459716797	399.2297668457032	242.4158782958985	-327.4966430664063	469.4852905273439	79.87905883789064	-361.9991149902344	500.7245483398439	50.42069625854494	-335.9036560058594	437.9502258300782	44.4707260131836	-348.4972229003907	500.8092041015626	89.47667694091798	-277.1412048339844	402.6003417968751	71.9416961669922	-303.5116271972657	474.4881896972657	126.1204299926758	-238.5563659667969	466.5419006347657	122.3314514160157	-203.4857025146485	416.5056152343751	142.2774047851563	-210.4183502197266	386.384979248047	61.67396545410158	-254.0610351562501	463.7864379882814	115.044189453125	-143.3148040771485	406.7423400878907	131.5217437744141	-146.1110534667969	354.7859497070313	77.93801116943361	-182.4890594482422	407.520721435547	147.0147857666016	-92.70561981201173	708.1829833984376	791.2678222656252	-760.0891723632814	703.5245971679689	763.9736328125001	-706.2175292968751	698.8648681640626	706.3762207031251	-762.9683837890626	681.3017578125001	680.4954833984376	-710.2262573242189	653.4969482421876	317.7354736328126	-1019.081909179688	658.7702026367189	279.1051635742188	-982.397888183594	649.5156860351564	261.9304199218751	-1028.481567382813	640.1484985351564	224.3040466308594	-987.1976318359377	589.2644042968751	141.8380737304688	-1147.052856445313	617.8975830078126	104.0529556274414	-1155.450439453125	559.2410278320314	103.3366851806641	-1151.021606445313	564.2945556640626	57.7634620666504	-932.5452880859377	665.8322143554689	35.31458282470704	-982.849060058594	
270	1.120833333333333	457.8276977539064	1078.901000976563	-792.1104736328127	567.5732421875001	1085.901123046875	-794.3191528320315	412.4946289062501	1049.4951171875	-577.8123168945314	656.0716552734376	1046.941650390625	-592.4278564453126	332.0321960449219	784.3772583007815	-564.9224243164064	347.6797790527344	797.5061645507815	-507.7718200683595	345.1116027832032	718.6074829101564	-512.7249755859376	370.3625183105469	729.8870239257814	-460.747283935547	400.236785888672	275.6499938964844	-418.606658935547	387.5931701660157	284.6083374023438	-358.7305297851563	402.2427673339845	230.0592041015626	-382.0072021484376	400.9378051757814	240.6429901123047	-322.4129028320313	470.9699096679689	80.41363525390626	-359.0882263183594	501.6560363769532	49.68258666992189	-334.0883483886719	438.1079101562501	45.82688140869141	-347.2561340332032	502.5882263183595	86.4893264770508	-273.9210815429688	403.7209777832032	71.27385711669923	-301.1415710449219	477.1142578125001	124.0624084472657	-233.8510894775391	468.4352111816407	118.4609451293946	-199.8270721435547	418.677215576172	139.3744201660157	-206.4334869384766	387.6777648925782	60.12776947021486	-251.7144927978516	465.3194885253907	109.9725952148438	-140.2978973388672	408.4064331054689	127.4858703613282	-142.5065155029297	355.7004699707032	74.69494628906251	-180.332504272461	409.3311157226564	141.611083984375	-88.76887512207033	707.7965087890626	790.1738891601565	-752.4718017578126	703.0418701171876	763.0416870117189	-698.5846557617189	698.5653686523439	705.3096923828126	-755.2020263671876	680.8198852539064	679.5043334960939	-702.4849853515626	653.8048095703126	319.1938781738282	-1014.490966796875	659.2140502929689	280.1367797851563	-978.3657836914065	649.9105224609376	263.5066833496094	-1024.60888671875	640.5377197265626	225.2708587646485	-983.9126586914065	589.8176269531251	145.2013854980469	-1144.56005859375	618.2929687500001	107.5164947509766	-1153.745971679688	559.6293945312501	107.2380676269532	-1149.314819335938	564.4572753906251	57.77896881103517	-931.960388183594	665.8906860351564	35.49835205078126	-982.6333618164065	
271	1.125	457.3668518066407	1078.203247070313	-784.2659912109377	567.1431274414064	1084.978759765625	-786.7177734375002	411.7740478515626	1049.170288085938	-569.9590454101564	655.3444213867189	1045.81689453125	-584.7420043945314	331.9491882324219	784.3872680664065	-556.4093017578126	347.3230285644532	797.442810058594	-499.2698364257814	345.0636291503907	718.5819702148439	-504.2509765625001	370.0905151367188	729.9163208007814	-452.1166076660157	401.2772521972657	274.9808654785157	-412.900360107422	389.0246887207032	283.5863952636719	-352.7965393066407	403.366424560547	229.2546691894532	-376.1517944335938	402.4920654296876	239.4765167236329	-316.7817687988282	471.8691711425782	80.68757629394533	-354.6850280761719	502.3187866210939	49.3053550720215	-332.1145019531251	439.4365844726564	45.93437194824219	-344.8121337890626	504.0014953613282	83.73162841796876	-270.6400451660157	404.8623046875001	70.71456909179689	-298.1853637695313	478.8471984863282	120.9754028320313	-230.0909271240235	470.1295166015626	115.0883102416992	-196.0795135498047	420.6688232421876	136.6891021728516	-202.2274932861329	388.963592529297	58.37528228759767	-249.5029449462891	466.8914489746095	105.5209045410157	-137.458984375	410.3853454589845	123.3998184204102	-138.4664459228516	356.9693298339844	71.63471984863283	-177.7996215820313	411.1785583496095	136.7447814941407	-84.65708923339845	707.4973754882814	789.128112792969	-744.6572875976564	702.5244140625001	762.0973510742189	-690.7338256835939	698.2886962890626	704.2449340820314	-747.2888183593751	680.3256835937501	678.5711059570314	-694.5711669921876	654.1497192382814	320.8820800781251	-1009.677001953125	659.5175781250001	281.2606201171876	-974.0986328125002	650.2269897460939	265.2970581054688	-1020.591491699219	640.8873901367189	226.475814819336	-980.4962158203127	590.1466674804689	148.7345733642578	-1141.912475585938	618.4859619140626	111.248161315918	-1151.8525390625	559.7796020507814	111.0577545166016	-1147.272827148438	564.5303344726564	57.72175979614259	-931.4075927734377	665.8907470703126	35.74154663085938	-982.392761230469	
272	1.129166666666667	456.9071655273439	1077.622436523438	-776.437438964844	566.7399902343751	1084.110473632813	-779.0549926757815	411.0632629394532	1049.066772460938	-562.0507202148439	654.5825195312501	1044.693115234375	-577.0316162109376	331.9395751953126	784.4504394531252	-548.1394042968751	346.8112487792969	797.3796997070315	-490.7723999023439	344.9536132812501	718.3550415039064	-496.1083374023439	369.7317810058594	729.5872802734376	-443.8338928222657	402.0282287597657	274.4346008300782	-406.8411865234376	390.2307434082032	282.8075866699219	-346.7495117187501	404.3006286621095	228.5750579833985	-370.5781555175782	403.613494873047	238.3730010986329	-310.8829345703126	472.3846130371095	81.51731109619142	-351.5377197265626	502.6741943359376	49.22541427612306	-330.2128601074219	439.2021789550782	46.92576980590821	-343.0432434082032	505.102020263672	81.3322219848633	-267.5893249511719	405.402069091797	70.35816192626955	-295.2083435058594	480.3943786621095	118.2551574707032	-226.4355010986329	471.8111877441407	111.921127319336	-192.4485321044922	422.4756774902345	134.2000732421875	-197.8891143798829	390.1756896972657	57.00033187866212	-246.7338104248047	468.4673461914064	101.2712097167969	-134.7506256103516	412.0457458496095	119.8238296508789	-134.0916290283203	358.8820800781251	69.07968902587892	-175.0953979492188	413.2981262207032	132.0630798339844	-80.57180786132814	707.1318969726564	788.0898437500002	-736.7235717773439	702.0274047851564	761.1854248046876	-682.7098999023439	698.0411987304689	703.1434936523439	-739.0486450195314	679.8677978515626	677.6812133789064	-686.3798828125001	654.3865356445314	322.6291503906251	-1004.66845703125	659.9409179687501	282.5591430664063	-969.621520996094	650.5704956054689	267.2375793457032	-1016.384887695313	641.3862304687501	227.8395996093751	-976.8201293945315	590.2541503906251	152.2842407226563	-1138.85791015625	618.3917236328126	115.3282852172852	-1150.488159179688	559.9415283203126	115.3855972290039	-1145.092529296875	564.5824584960939	57.61067962646486	-930.8264160156252	665.8881225585939	36.01184844970704	-982.152038574219	
273	1.133333333333333	456.4437866210939	1077.194580078125	-768.6580810546877	566.1789550781251	1083.415893554688	-771.3702392578127	410.3091430664064	1049.125610351563	-554.0010375976564	653.7889404296876	1043.61181640625	-569.2069091796876	331.9204406738282	784.2380371093752	-540.0538330078126	346.1242370605469	797.0289306640627	-482.5218505859376	344.9388122558594	718.1233520507814	-488.1929321289064	369.2432250976563	729.3517456054689	-435.7184448242189	402.377899169922	274.3829040527344	-400.4197692871095	391.0550842285157	282.3823852539063	-340.2481689453126	404.6296386718751	228.0960693359376	-364.5684204101563	404.5387573242189	237.5466308593751	-304.9295654296876	473.2986755371095	83.53022766113283	-350.3485717773438	502.7896423339845	49.45624923706056	-328.4656066894532	439.5156250000001	47.78233337402344	-341.1831665039063	505.9175720214845	79.27822113037111	-264.7722167968751	405.976287841797	70.01268768310548	-292.2649841308594	481.6851501464845	115.6620712280274	-222.8977355957032	473.3939208984376	108.8398895263672	-188.892333984375	424.1124877929689	131.5852813720703	-193.4819488525391	391.1126708984376	55.67260742187501	-243.9447937011719	469.9161987304689	96.45588684082034	-132.3842926025391	414.064422607422	116.0631256103516	-129.8163299560547	360.9680480957032	66.30883026123048	-172.0314331054688	415.7864685058595	127.1306686401367	-76.76042938232423	706.8512573242189	787.1555175781252	-728.5641479492189	701.5507812500001	760.3668823242189	-674.4906616210939	697.7708129882814	702.1622924804689	-730.6797485351564	679.4104614257814	676.7735595703126	-678.0027465820314	654.5487670898439	324.5849609375001	-999.3951416015627	660.3436279296876	283.9809570312501	-965.040222167969	650.8170166015626	269.3794860839844	-1011.92822265625	642.1133422851564	229.2134704589844	-972.849792480469	590.3648071289064	156.5120849609375	-1135.80810546875	618.7013549804689	119.9692001342774	-1147.801147460938	559.9038085937501	119.8346939086914	-1142.434814453125	564.5680541992189	57.4601516723633	-930.1087646484377	665.9214477539064	36.45277786254884	-982.1508789062502	
